# xmcd
#
# Track frame offsets: 
#        182
#        16425
#        32407
#        52040
#        69550
#        88505
#        104175
#        120632
#        137867
#        151550
#        164052
#
# Disc length: 2377 seconds
#
# Revision: 4
# Processed by: cddbd v1.5.2PL0 Copyright (c) Steve Scherf et al.
# Submitted via: ExactAudioCopy v0.99pb5
#
DISCID=9309470b
DTITLE=Kenny Rogers - Greatest Country Hits
DYEAR=1990
DGENRE=Country
TTITLE0=Lucille
TTITLE1=The Gambler
TTITLE2=Coward of the County
TTITLE3=Lady
TTITLE4=She Believes in Me
TTITLE5=I Don't Need You
TTITLE6=Love Will Turn You Around
TTITLE7=We've Got Tonight (with Sheena Easton)
TTITLE8=But You Know I Love You (with the First Edition)
TTITLE9=Ruben James (with the First Edition)
TTITLE10=Daytime Friends
EXTD=
EXTT0=
EXTT1=
EXTT2=
EXTT3=
EXTT4=
EXTT5=
EXTT6=
EXTT7=
EXTT8=
EXTT9=
EXTT10=
PLAYORDER=
